<svg xmlns="http://www.w3.org/2000/svg" viewBox="0 0 865 788"><path d="M865 788H0V0h865v788zM435 61c-22.5 0-45 2.3-67.1 6.8-130.4 26.7-232.4 128.7-259.1 259.1-9 44.3-9 89.9 0 134.2 26.8 130.4 128.7 232.3 259.1 259.1 44.3 9 89.9 9 134.2 0 130.4-26.8 232.3-128.7 259.1-259.1 9-44.3 9-89.9 0-134.2C734.5 196.5 632.5 94.5 502.1 67.8 480 63.3 457.5 61 435 61z" opacity=".65" fill="#fafafa"/><path d="M435 61c-22.5 0-45 2.3-67.1 6.8-130.4 26.7-232.4 128.7-259.1 259.1-9 44.3-9 89.9 0 134.2 26.8 130.4 128.7 232.3 259.1 259.1 44.3 9 89.9 9 134.2 0 130.4-26.8 232.3-128.7 259.1-259.1 9-44.3 9-89.9 0-134.2C734.5 196.5 632.5 94.5 502.1 67.8 480 63.3 457.5 61 435 61z" fill="none" stroke="#000" stroke-width="2" stroke-miterlimit="10"/></svg>